<?xml version="1.0" encoding="utf-8" ?>
<svg baseProfile="full" height="100" version="1.1" viewBox="0 0 100 100" width="100" xmlns="http://www.w3.org/2000/svg" xmlns:ev="http://www.w3.org/2001/xml-events" xmlns:xlink="http://www.w3.org/1999/xlink"><defs /><path d="M 52.22,87.11 L 52.44,86.89 L 52.89,86.89 L 53.11,86.67 L 53.33,86.44 L 53.56,86.22 L 53.78,86.00 L 54.22,86.00 L 54.44,85.78 L 54.67,85.56 L 54.89,85.33 L 54.89,84.89 L 55.11,84.67 L 55.33,84.44 L 55.56,84.22 L 55.78,84.00 L 55.78,83.56 L 56.00,83.33 L 56.22,83.11 L 56.22,82.67 L 56.22,82.22 L 56.22,81.78 L 56.22,81.33 L 56.22,80.89 L 56.22,80.44 L 56.22,80.00 L 56.22,79.56 L 56.22,79.11 L 56.22,78.67 L 56.22,78.22 L 56.22,77.78 L 56.22,77.33 L 56.22,76.89 L 56.22,76.44 L 56.22,76.00 L 56.22,75.56 L 56.22,75.11 L 56.22,74.67 L 56.22,74.22 L 56.22,73.78 L 56.22,73.33 L 56.22,72.89 L 56.22,72.44 L 56.22,72.00 L 56.22,71.56 L 56.22,71.11 L 56.22,70.67 L 56.22,70.22 L 56.22,69.78 L 56.22,69.33 L 56.22,68.89 L 56.22,68.44 L 56.22,68.00 L 56.22,67.56 L 56.22,67.11 L 56.22,66.67 L 56.22,66.22 L 56.44,66.00 L 56.89,66.00 L 57.33,66.00 L 57.78,66.00 L 58.22,66.00 L 58.67,66.00 L 59.11,66.00 L 59.56,66.00 L 60.00,66.00 L 60.44,66.00 L 60.89,66.00 L 61.33,66.00 L 61.78,66.00 L 62.22,66.00 L 62.67,66.00 L 63.11,66.00 L 63.56,66.00 L 64.00,66.00 L 64.44,66.00 L 64.89,66.00 L 65.33,66.00 L 65.78,66.00 L 66.22,66.00 L 66.67,66.00 L 67.11,66.00 L 67.56,66.00 L 68.00,66.00 L 68.44,66.00 L 68.89,66.00 L 69.11,65.78 L 69.33,65.56 L 69.56,65.33 L 69.56,64.89 L 69.78,64.67 L 70.00,64.44 L 70.00,64.00 L 70.00,63.56 L 70.00,63.11 L 70.00,62.67 L 70.00,62.22 L 70.00,61.78 L 70.00,61.33 L 70.00,60.89 L 70.00,60.44 L 70.00,60.00 L 70.00,59.56 L 70.00,59.11 L 70.00,58.67 L 70.00,58.22 L 70.00,57.78 L 70.00,57.33 L 70.00,56.89 L 70.00,56.44 L 70.00,56.00 L 70.00,55.56 L 70.00,55.11 L 70.00,54.67 L 70.00,54.22 L 70.00,53.78 L 70.00,53.33 L 70.00,52.89 L 70.00,52.44 L 70.00,52.00 L 70.00,51.56 L 70.00,51.11 L 70.00,50.67 L 70.00,50.22 L 70.00,49.78 L 70.00,49.33 L 70.00,48.89 L 70.00,48.44 L 70.00,48.00 L 70.00,47.56 L 70.00,47.11 L 70.00,46.67 L 70.00,46.22 L 70.00,45.78 L 70.00,45.33 L 70.00,44.89 L 70.00,44.44 L 70.00,44.00 L 70.00,43.56 L 70.00,43.11 L 70.00,42.67 L 70.00,42.22 L 70.00,41.78 L 70.00,41.33 L 70.00,40.89 L 70.00,40.44 L 70.00,40.00 L 70.00,39.56 L 70.00,39.11 L 70.00,38.67 L 70.00,38.22 L 70.00,37.78 L 70.00,37.33 L 70.00,36.89 L 70.00,36.44 L 70.00,36.00 L 70.00,35.56 L 70.00,35.11 L 70.00,34.67 L 70.00,34.22 L 70.00,33.78 L 70.00,33.33 L 70.00,32.89 L 70.00,32.44 L 70.00,32.00 L 70.00,31.56 L 70.00,31.11 L 70.00,30.67 L 69.78,30.44 L 69.56,30.22 L 69.56,29.78 L 69.56,29.33 L 69.56,28.89 L 69.56,28.44 L 69.56,28.00 L 69.56,27.56 L 69.56,27.11 L 69.56,26.67 L 69.33,26.44 L 69.11,26.22 L 69.11,25.78 L 69.11,25.33 L 69.11,24.89 L 68.89,24.67 L 68.67,24.44 L 68.67,24.00 L 68.67,23.56 L 68.44,23.33 L 68.22,23.11 L 68.22,22.67 L 68.00,22.44 L 67.78,22.22 L 67.78,21.78 L 67.56,21.56 L 67.33,21.33 L 67.33,20.89 L 67.11,20.67 L 66.89,20.44 L 66.67,20.22 L 66.44,20.00 L 66.22,19.78 L 66.00,19.56 L 66.00,19.11 L 65.78,18.89 L 65.56,18.67 L 65.33,18.44 L 65.11,18.22 L 64.89,18.00 L 64.67,17.78 L 64.44,17.56 L 64.22,17.33 L 64.00,17.11 L 63.78,16.89 L 63.56,16.67 L 63.33,16.44 L 63.11,16.22 L 62.67,16.22 L 62.44,16.00 L 62.22,15.78 L 62.00,15.56 L 61.78,15.33 L 61.33,15.33 L 61.11,15.11 L 60.89,14.89 L 60.44,14.89 L 60.22,14.67 L 60.00,14.44 L 59.56,14.44 L 59.33,14.22 L 59.11,14.00 L 58.67,14.00 L 58.44,13.78 L 58.22,13.56 L 57.78,13.56 L 57.33,13.56 L 57.11,13.33 L 56.89,13.11 L 56.44,13.11 L 56.00,13.11 L 55.78,12.89 L 55.56,12.67 L 55.11,12.67 L 54.67,12.67 L 54.22,12.67 L 53.78,12.67 L 53.33,12.67 L 53.11,12.44 L 52.89,12.22 L 52.44,12.22 L 52.00,12.22 L 51.56,12.22 L 51.11,12.22 L 50.67,12.22 L 50.22,12.22 L 49.78,12.22 L 49.33,12.22 L 48.89,12.22 L 48.44,12.22 L 48.00,12.22 L 47.56,12.22 L 47.11,12.22 L 46.89,12.44 L 46.67,12.67 L 46.22,12.67 L 45.78,12.67 L 45.33,12.67 L 44.89,12.67 L 44.44,12.67 L 44.22,12.89 L 44.00,13.11 L 43.56,13.11 L 43.11,13.11 L 42.67,13.11 L 42.44,13.33 L 42.22,13.56 L 41.78,13.56 L 41.33,13.56 L 41.11,13.78 L 40.89,14.00 L 40.44,14.00 L 40.22,14.22 L 40.00,14.44 L 39.56,14.44 L 39.33,14.67 L 39.11,14.89 L 38.67,14.89 L 38.44,15.11 L 38.22,15.33 L 37.78,15.33 L 37.56,15.56 L 37.33,15.78 L 37.11,16.00 L 36.89,16.22 L 36.44,16.22 L 36.22,16.44 L 36.00,16.67 L 35.78,16.89 L 35.56,17.11 L 35.33,17.33 L 35.11,17.56 L 34.89,17.78 L 34.67,18.00 L 34.44,18.22 L 34.22,18.44 L 34.00,18.67 L 33.78,18.89 L 33.56,19.11 L 33.56,19.56 L 33.33,19.78 L 33.11,20.00 L 32.89,20.22 L 32.67,20.44 L 32.44,20.67 L 32.22,20.89 L 32.22,21.33 L 32.00,21.56 L 31.78,21.78 L 31.78,22.22 L 31.56,22.44 L 31.33,22.67 L 31.33,23.11 L 31.11,23.33 L 30.89,23.56 L 30.89,24.00 L 30.89,24.44 L 30.67,24.67 L 30.44,24.89 L 30.44,25.33 L 30.44,25.78 L 30.44,26.22 L 30.22,26.44 L 30.00,26.67 L 30.00,27.11 L 30.00,27.56 L 30.00,28.00 L 30.00,28.44 L 30.00,28.89 L 30.00,29.33 L 30.00,29.78 L 30.00,30.22 L 29.78,30.44 L 29.56,30.67 L 29.56,31.11 L 29.56,31.56 L 29.56,32.00 L 29.56,32.44 L 29.56,32.89 L 29.56,33.33 L 29.56,33.78 L 29.56,34.22 L 29.56,34.67 L 29.56,35.11 L 29.56,35.56 L 29.56,36.00 L 29.56,36.44 L 29.56,36.89 L 29.56,37.33 L 29.56,37.78 L 29.56,38.22 L 29.56,38.67 L 29.56,39.11 L 29.56,39.56 L 29.56,40.00 L 29.56,40.44 L 29.56,40.89 L 29.56,41.33 L 29.56,41.78 L 29.56,42.22 L 29.56,42.67 L 29.56,43.11 L 29.56,43.56 L 29.56,44.00 L 29.56,44.44 L 29.56,44.89 L 29.56,45.33 L 29.56,45.78 L 29.56,46.22 L 29.56,46.67 L 29.56,47.11 L 29.56,47.56 L 29.56,48.00 L 29.56,48.44 L 29.56,48.89 L 29.56,49.33 L 29.56,49.78 L 29.56,50.22 L 29.56,50.67 L 29.56,51.11 L 29.56,51.56 L 29.56,52.00 L 29.56,52.44 L 29.56,52.89 L 29.56,53.33 L 29.56,53.78 L 29.56,54.22 L 29.56,54.67 L 29.56,55.11 L 29.56,55.56 L 29.56,56.00 L 29.56,56.44 L 29.56,56.89 L 29.56,57.33 L 29.56,57.78 L 29.56,58.22 L 29.56,58.67 L 29.56,59.11 L 29.56,59.56 L 29.56,60.00 L 29.56,60.44 L 29.56,60.89 L 29.56,61.33 L 29.56,61.78 L 29.56,62.22 L 29.56,62.67 L 29.56,63.11 L 29.56,63.56 L 29.56,64.00 L 29.56,64.44 L 29.78,64.67 L 30.00,64.89 L 30.00,65.33 L 30.22,65.56 L 30.44,65.78 L 30.67,66.00 L 31.11,66.00 L 31.56,66.00 L 32.00,66.00 L 32.44,66.00 L 32.89,66.00 L 33.33,66.00 L 33.78,66.00 L 34.22,66.00 L 34.67,66.00 L 35.11,66.00 L 35.56,66.00 L 36.00,66.00 L 36.44,66.00 L 36.89,66.00 L 37.33,66.00 L 37.78,66.00 L 38.22,66.00 L 38.67,66.00 L 39.11,66.00 L 39.56,66.00 L 40.00,66.00 L 40.44,66.00 L 40.89,66.00 L 41.33,66.00 L 41.78,66.00 L 42.22,66.00 L 42.67,66.00 L 43.11,66.00 L 43.33,66.22 L 43.33,66.67 L 43.33,67.11 L 43.33,67.56 L 43.33,68.00 L 43.33,68.44 L 43.33,68.89 L 43.33,69.33 L 43.33,69.78 L 43.33,70.22 L 43.33,70.67 L 43.33,71.11 L 43.33,71.56 L 43.33,72.00 L 43.33,72.44 L 43.33,72.89 L 43.33,73.33 L 43.33,73.78 L 43.33,74.22 L 43.33,74.67 L 43.33,75.11 L 43.33,75.56 L 43.33,76.00 L 43.33,76.44 L 43.33,76.89 L 43.33,77.33 L 43.33,77.78 L 43.33,78.22 L 43.33,78.67 L 43.33,79.11 L 43.33,79.56 L 43.33,80.00 L 43.33,80.44 L 43.33,80.89 L 43.33,81.33 L 43.33,81.78 L 43.33,82.22 L 43.33,82.67 L 43.33,83.11 L 43.56,83.33 L 43.78,83.56 L 43.78,84.00 L 44.00,84.22 L 44.22,84.44 L 44.44,84.67 L 44.67,84.89 L 44.67,85.33 L 44.89,85.56 L 45.11,85.78 L 45.33,86.00 L 45.78,86.00 L 46.00,86.22 L 46.22,86.44 L 46.44,86.67 L 46.67,86.89 L 47.11,86.89 L 47.33,87.11 L 47.56,87.33 L 48.00,87.33 L 48.44,87.33 L 48.89,87.33 L 49.33,87.33 L 49.78,87.33 L 50.22,87.33 L 50.67,87.33 L 51.11,87.33 L 51.56,87.33 L 52.00,87.33 L 52.22,87.11 Z M 56.89,54.44 L 56.44,54.44 L 56.00,54.44 L 55.56,54.44 L 55.11,54.44 L 54.67,54.44 L 54.22,54.44 L 53.78,54.44 L 53.33,54.44 L 52.89,54.44 L 52.44,54.44 L 52.00,54.44 L 51.56,54.44 L 51.11,54.44 L 50.67,54.44 L 50.22,54.44 L 49.78,54.44 L 49.33,54.44 L 48.89,54.44 L 48.44,54.44 L 48.00,54.44 L 47.56,54.44 L 47.11,54.44 L 46.67,54.44 L 46.22,54.44 L 45.78,54.44 L 45.33,54.44 L 44.89,54.44 L 44.44,54.44 L 44.00,54.44 L 43.56,54.44 L 43.11,54.44 L 42.67,54.44 L 42.44,54.22 L 42.44,53.78 L 42.44,53.33 L 42.44,52.89 L 42.44,52.44 L 42.44,52.00 L 42.44,51.56 L 42.44,51.11 L 42.44,50.67 L 42.44,50.22 L 42.44,49.78 L 42.44,49.33 L 42.44,48.89 L 42.44,48.44 L 42.44,48.00 L 42.44,47.56 L 42.44,47.11 L 42.44,46.67 L 42.44,46.22 L 42.44,45.78 L 42.44,45.33 L 42.44,44.89 L 42.44,44.44 L 42.44,44.00 L 42.44,43.56 L 42.44,43.11 L 42.44,42.67 L 42.44,42.22 L 42.44,41.78 L 42.44,41.33 L 42.44,40.89 L 42.44,40.44 L 42.44,40.00 L 42.44,39.56 L 42.44,39.11 L 42.44,38.67 L 42.44,38.22 L 42.44,37.78 L 42.44,37.33 L 42.44,36.89 L 42.44,36.44 L 42.44,36.00 L 42.44,35.56 L 42.44,35.11 L 42.44,34.67 L 42.44,34.22 L 42.44,33.78 L 42.44,33.33 L 42.44,32.89 L 42.44,32.44 L 42.44,32.00 L 42.44,31.56 L 42.44,31.11 L 42.44,30.67 L 42.44,30.22 L 42.44,29.78 L 42.44,29.33 L 42.44,28.89 L 42.67,28.67 L 42.89,28.44 L 42.89,28.00 L 42.89,27.56 L 43.11,27.33 L 43.33,27.11 L 43.56,26.89 L 43.78,26.67 L 43.78,26.22 L 44.00,26.00 L 44.22,25.78 L 44.44,25.56 L 44.67,25.33 L 44.89,25.11 L 45.11,24.89 L 45.33,24.67 L 45.78,24.67 L 46.00,24.44 L 46.22,24.22 L 46.67,24.22 L 46.89,24.00 L 47.11,23.78 L 47.56,23.78 L 48.00,23.78 L 48.44,23.78 L 48.67,23.56 L 48.89,23.33 L 49.33,23.33 L 49.78,23.33 L 50.22,23.33 L 50.67,23.33 L 50.89,23.56 L 51.11,23.78 L 51.56,23.78 L 52.00,23.78 L 52.44,23.78 L 52.67,24.00 L 52.89,24.22 L 53.33,24.22 L 53.56,24.44 L 53.78,24.67 L 54.22,24.67 L 54.44,24.89 L 54.67,25.11 L 54.89,25.33 L 55.11,25.56 L 55.33,25.78 L 55.56,26.00 L 55.78,26.22 L 55.78,26.67 L 56.00,26.89 L 56.22,27.11 L 56.44,27.33 L 56.67,27.56 L 56.67,28.00 L 56.67,28.44 L 56.89,28.67 L 57.11,28.89 L 57.11,29.33 L 57.11,29.78 L 57.11,30.22 L 57.11,30.67 L 57.11,31.11 L 57.11,31.56 L 57.11,32.00 L 57.11,32.44 L 57.11,32.89 L 57.11,33.33 L 57.11,33.78 L 57.11,34.22 L 57.11,34.67 L 57.11,35.11 L 57.11,35.56 L 57.11,36.00 L 57.11,36.44 L 57.11,36.89 L 57.11,37.33 L 57.11,37.78 L 57.11,38.22 L 57.11,38.67 L 57.11,39.11 L 57.11,39.56 L 57.11,40.00 L 57.11,40.44 L 57.11,40.89 L 57.11,41.33 L 57.11,41.78 L 57.11,42.22 L 57.11,42.67 L 57.11,43.11 L 57.11,43.56 L 57.11,44.00 L 57.11,44.44 L 57.11,44.89 L 57.11,45.33 L 57.11,45.78 L 57.11,46.22 L 57.11,46.67 L 57.11,47.11 L 57.11,47.56 L 57.11,48.00 L 57.11,48.44 L 57.11,48.89 L 57.11,49.33 L 57.11,49.78 L 57.11,50.22 L 57.11,50.67 L 57.11,51.11 L 57.11,51.56 L 57.11,52.00 L 57.11,52.44 L 57.11,52.89 L 57.11,53.33 L 57.11,53.78 L 57.11,54.22 L 56.89,54.44 Z" fill="currentColor" /></svg>